<svg width="134" height="149" viewBox="0 0 134 149" fill="none" xmlns="http://www.w3.org/2000/svg">
<path d="M117.332 0L118.881 0.387234L121.204 4.25958L121.979 6.58298V12.0043L120.43 15.8766L118.494 18.9745L116.17 20.9107L113.46 24.0085L18.2 119.268L16.6511 118.494L13.5532 114.234L10.0681 109.2L6.58299 103.004L3.09788 94.4852L0.774469 85.5788L0 78.6086V67.3788L1.1617 59.2469L3.09788 53.0511L5.03405 47.6298L8.13192 41.4341L11.617 35.6256L16.6511 29.4298L22.0724 24.0085L26.3319 20.5234L31.366 17.0383L34.4639 15.1021L42.2086 11.617L46.8554 10.0681L53.0511 8.51916L60.4086 7.35745H71.6384L77.4469 8.13192L84.0299 9.68086L88.2895 10.8426L92.549 12.7787L96.4214 14.3277L95.6469 15.8766L86.7405 24.783L84.0299 24.3958L80.932 23.2341L74.349 21.6851L71.6384 21.2979H61.183L54.2128 22.4596L47.6298 24.3958L41.8213 27.1064L36.4 30.2043L32.5277 33.3022L28.6553 36.7873L25.9447 39.4979L21.2979 46.0809L18.2 51.8894L15.4894 59.6341L14.3277 66.2171L13.9404 68.5405V79.383L15.4894 87.1277L17.4256 93.7107L19.3617 97.5831L22.0724 95.2597L117.332 0Z" fill="#121212"/>
<path d="M114.621 29.4297H115.783L118.494 32.5276L122.366 37.9488L125.464 42.9829L126.625 44.9191L127.013 47.2425H127.787L130.885 56.5361L132.821 65.0553L133.208 69.3148V79.3829L132.434 85.5787L130.498 94.0978L127.4 101.843L123.14 109.974L119.268 115.396L115.008 120.43L111.136 124.302L105.715 128.562L99.5191 132.434L94.0978 135.145L88.6765 137.468L82.0935 139.404L72.7999 140.953H60.4084L53.0509 139.791L45.6935 137.855L39.885 135.532L36.7871 133.983L37.5616 132.434L46.4679 123.528L49.9531 124.302L53.4382 125.464L60.7956 127.013H72.4127L78.2212 125.851L84.4169 124.302L88.6765 122.366L91.3871 121.204L98.3574 116.945L102.617 113.072L104.553 111.523L108.038 107.264L110.362 104.166L113.847 98.3574L116.17 92.9361L118.106 86.3531L119.268 79.3829V68.9276L117.719 60.7957L115.783 55.7616L114.234 51.8893L113.847 50.3403L112.298 51.502H111.523L110.749 53.051L104.553 59.2467L102.617 61.5701L100.681 63.1191L97.9701 66.217L96.034 67.7659L94.485 69.7021L92.1616 71.6382L91.7744 72.4127H90.9999L90.2254 73.9616L15.4892 148.698L14.3275 148.311L12.3913 145.213L11.2296 141.728V135.919L12.7786 131.66L14.3275 129.723H15.102L15.4892 128.562H16.2637L17.0381 127.013L114.621 29.4297Z" fill="#121212"/>
</svg>
