<svg width="134" height="149" viewBox="0 0 134 149" fill="none" xmlns="http://www.w3.org/2000/svg">
<path d="M118.124 0L119.672 0.387234L121.996 4.25958L122.77 6.58298V12.0043L121.221 15.8766L119.285 18.9745L116.962 20.9107L114.251 24.0085L18.9915 119.268L17.4426 118.494L14.3447 114.234L10.8596 109.2L7.37449 103.004L3.88938 94.4852L1.56597 85.5788L0.791504 78.6086V67.3788L1.95321 59.2469L3.88938 53.0511L5.82555 47.6298L8.92343 41.4341L12.4085 35.6256L17.4426 29.4298L22.8639 24.0085L27.1234 20.5234L32.1575 17.0383L35.2554 15.1021L43.0001 11.617L47.6469 10.0681L53.8426 8.51916L61.2001 7.35745H72.4299L78.2384 8.13192L84.8214 9.68086L89.081 10.8426L93.3405 12.7787L97.2129 14.3277L96.4384 15.8766L87.532 24.783L84.8214 24.3958L81.7235 23.2341L75.1405 21.6851L72.4299 21.2979H61.9745L55.0043 22.4596L48.4213 24.3958L42.6128 27.1064L37.1915 30.2043L33.3192 33.3022L29.4469 36.7873L26.7362 39.4979L22.0894 46.0809L18.9915 51.8894L16.2809 59.6341L15.1192 66.2171L14.7319 68.5405V79.383L16.2809 87.1277L18.2171 93.7107L20.1532 97.5831L22.8639 95.2597L118.124 0Z" fill="white"/>
<path d="M115.413 29.4297H116.574L119.285 32.5276L123.157 37.9488L126.255 42.9829L127.417 44.9191L127.804 47.2425H128.579L131.677 56.5361L133.613 65.0553L134 69.3148V79.3829L133.226 85.5787L131.289 94.0978L128.191 101.843L123.932 109.974L120.06 115.396L115.8 120.43L111.928 124.302L106.506 128.562L100.311 132.434L94.8893 135.145L89.468 137.468L82.885 139.404L73.5914 140.953H61.1999L53.8424 139.791L46.485 137.855L40.6765 135.532L37.5786 133.983L38.3531 132.434L47.2595 123.528L50.7446 124.302L54.2297 125.464L61.5871 127.013H73.2042L79.0127 125.851L85.2084 124.302L89.468 122.366L92.1786 121.204L99.1489 116.945L103.408 113.072L105.345 111.523L108.83 107.264L111.153 104.166L114.638 98.3574L116.962 92.9361L118.898 86.3531L120.06 79.3829V68.9276L118.511 60.7957L116.574 55.7616L115.025 51.8893L114.638 50.3403L113.089 51.502H112.315L111.54 53.051L105.345 59.2467L103.408 61.5701L101.472 63.1191L98.7616 66.217L96.8255 67.7659L95.2765 69.7021L92.9531 71.6382L92.5659 72.4127H91.7914L91.0169 73.9616L16.2807 148.698L15.119 148.311L13.1828 145.213L12.0211 141.728V135.919L13.5701 131.66L15.119 129.723H15.8935L16.2807 128.562H17.0552L17.8296 127.013L115.413 29.4297Z" fill="white"/>
</svg>
